<svg width="1080" height="810" viewBox="0 0 1080 810" fill="none" xmlns="http://www.w3.org/2000/svg">
<path d="M94 723.411C94 723.411 132.325 121.69 360.942 90.101C767.686 33.8958 633.6 572.247 732.345 675.33C828.088 775.279 987 686.01 987 686.01" stroke="black" stroke-width="20" stroke-miterlimit="10" stroke-linecap="round"/>
<path d="M732.345 675.33C732.345 675.33 526.198 597.492 400.689 500.309C275.172 403.135 227.99 200.295 227.99 200.295" stroke="black" stroke-width="20" stroke-miterlimit="10" stroke-linecap="round"/>
<path d="M856.082 606.254C856.082 594.517 865.593 585.006 877.33 585.006C889.066 585.006 898.578 594.517 898.578 606.254C898.578 617.991 889.066 627.502 877.33 627.502C865.593 627.502 856.082 617.991 856.082 606.254Z" fill="black"/>
</svg>
